<svg xmlns="http://www.w3.org/2000/svg" width="297" height="50" viewBox="0 0 297 50">
  <g fill="none" fill-rule="evenodd">
    <path fill="#FFF" d="M71.3595438 19.3231844C69.8632 19.3231844 68.4772 19.6184656 67.2393563 20.2007781 66.3889188 20.6015906 65.6288875 21.1319969 64.9678563 21.7840906L64.9678563 10.0333406 60.8462938 10.0333406 60.8462938 39.1396844 64.9678563 39.1396844 64.9678563 29.2781844C64.9678563 27.3487156 65.4638875 25.8314031 66.4422 24.7681844 67.4229188 23.7022156 68.7387938 23.1841844 70.4657938 23.1841844 73.2133875 23.1841844 74.492825 24.8307469 74.492825 28.3658719L74.492825 39.1582469 78.6147313 39.1582469 78.6147313 27.4910281C78.6147313 24.8104656 77.9629813 22.7589656 76.6777 21.3935906 75.383825 20.0196219 73.5946063 19.3231844 71.3595438 19.3231844M86.3772594 27.2358281C86.6907594 26.0846094 87.2651656 25.1441094 88.0891344 24.4332344 89.0626344 23.5927656 90.1918531 23.1843906 91.5410719 23.1843906 92.8658844 23.1843906 93.9266969 23.5893281 94.7846969 24.4218906 95.5234156 25.1392969 96.0359469 26.0839219 96.3119781 27.2358281L86.3772594 27.2358281zM96.1641656 20.5890781C94.7723219 19.7492969 93.1604781 19.3230469 91.3733219 19.3230469 90.0674156 19.3230469 88.8209781 19.5757031 87.6687281 20.0731094 86.5178531 20.5698281 85.5120406 21.2642031 84.6798219 22.1359531 83.8482906 23.0066719 83.1824469 24.0784844 82.7008531 25.3218281 82.2206344 26.5613906 81.9772594 27.9174844 81.9772594 29.3526406 81.9772594 30.8018906 82.2275094 32.1689844 82.7207906 33.4150781 83.2164781 34.6666719 83.9063844 35.7402031 84.7719469 36.6057656 85.6364781 37.4699531 86.6797594 38.1564219 87.8732594 38.6448906 89.0657281 39.1340469 90.3623531 39.3818906 91.7270406 39.3818906 93.4244781 39.3818906 94.9637906 39.0494844 96.3013219 38.3936094 97.6388531 37.7380781 98.7615406 36.8309219 99.6381031 35.6982656L99.9381969 35.3101719 97.0049781 32.7987344 96.6711969 33.2071094C96.0981656 33.9083594 95.3951969 34.4765781 94.5815406 34.8966406 93.7778531 35.3105156 92.8548844 35.5208906 91.8387594 35.5208906 90.2953219 35.5208906 89.0396031 35.0551094 87.9990719 34.0974219 87.0950094 33.2652031 86.5106344 32.1700156 86.2569469 30.8366094L100.355853 30.8366094 100.427697 30.4055469C100.494041 30.0067969 100.527728 29.5520156 100.527728 29.0546094 100.527728 27.2179531 100.148572 25.5449219 99.4005719 24.0819219 98.6456969 22.6051719 97.5566969 21.4298906 96.1641656 20.5890781L96.1641656 20.5890781z"/>
    <polygon fill="#FFF" points="104.449 39.14 108.571 39.14 108.571 10.033 104.449 10.033"/>
    <path fill="#FFF" d="M116.051409,11.7647062 C115.290003,11.7647062 114.638941,12.0283625 114.116784,12.5477687 C113.594284,13.06855 113.329253,13.7110187 113.329253,14.4583312 C113.329253,15.1943 113.594284,15.8305812 114.116784,16.3503312 C114.638253,16.870425 115.289316,17.1337375 116.051409,17.1337375 C116.794941,17.1337375 117.437409,16.8707687 117.961628,16.3517062 C118.487566,15.8316125 118.754316,15.1946437 118.754316,14.4583312 C118.754316,13.710675 118.487566,13.0675187 117.961628,12.5463937 C117.436722,12.027675 116.794253,11.7647062 116.051409,11.7647062"/>
    <polygon fill="#FFF" points="113.962 39.14 118.084 39.14 118.084 19.547 113.962 19.547"/>
    <path fill="#FFF" d="M135.949619 29.0653688C135.949619 30.0735875 135.808338 31.0096188 135.528869 31.8476813 135.254212 32.6733688 134.88365 33.3574313 134.428525 33.8809625 133.975119 34.4017438 133.44265 34.8108063 132.845213 35.095775 132.25465 35.37765 131.618713 35.52065 130.954588 35.52065 129.576494 35.52065 128.592338 35.1401188 127.944713 34.3567125 127.281963 33.5550875 126.946119 32.1694313 126.946119 30.2396188L126.946119 19.5469313 122.824213 19.5469313 122.824213 31.1213375C122.824213 33.8276813 123.488681 35.9011813 124.799056 37.2844313 126.116994 38.676275 127.968431 39.3819938 130.302838 39.3819938 131.586056 39.3819938 132.813588 39.075025 133.952088 38.4696813 134.690806 38.076775 135.359056 37.5683688 135.949619 36.9513375L135.949619 39.1399938 140.071525 39.1399938 140.071525 19.5469313 135.949619 19.5469313 135.949619 29.0653688zM167.339975 19.3231844C165.860819 19.3231844 164.481006 19.6597156 163.238006 20.3245281 162.230475 20.8638719 161.359069 21.5943406 160.638913 22.5018406 159.497663 20.3915594 157.483975 19.3231844 154.642538 19.3231844 153.348319 19.3231844 152.102913 19.6418406 150.941038 20.2698719 150.1786 20.6820281 149.48835 21.2114031 148.877506 21.8514656L148.877506 19.5466219 144.755944 19.5466219 144.755944 39.1396844 148.877506 39.1396844 148.877506 29.4084656C148.877506 27.4941219 149.350163 25.9541219 150.282069 24.8321219 151.204006 23.7235281 152.332194 23.1841844 153.732288 23.1841844 155.037506 23.1841844 155.983163 23.5849969 156.623225 24.4093094 157.284944 25.2618094 157.620444 26.6557156 157.620444 28.5521844L157.620444 39.1396844 161.742694 39.1396844 161.742694 29.4084656C161.742694 27.5027156 162.20435 25.9640906 163.114944 24.8355594 164.010413 23.7245594 165.094944 23.1841844 166.429725 23.1841844 167.754881 23.1841844 168.692288 23.5791531 169.294881 24.3907469 169.924287 25.2391219 170.242944 26.6515906 170.242944 28.5893094L170.242944 39.1396844 174.365194 39.1396844 174.365194 27.7515906C174.365194 24.9452156 173.771881 22.8225594 172.601756 21.4413719 171.408944 20.0357781 169.638631 19.3231844 167.339975 19.3231844M199.839784 19.3231844C198.343441 19.3231844 196.957441 19.6184656 195.719597 20.2007781 194.869159 20.6015906 194.108784 21.1319969 193.448097 21.7840906L193.448097 10.0333406 189.326534 10.0333406 189.326534 39.1396844 193.448097 39.1396844 193.448097 29.2781844C193.448097 27.3487156 193.944472 25.8314031 194.922097 24.7681844 195.903159 23.7022156 197.219378 23.1841844 198.946034 23.1841844 201.693628 23.1841844 202.973066 24.8307469 202.973066 28.3658719L202.973066 39.1582469 207.094628 39.1582469 207.094628 27.4910281C207.094628 24.8104656 206.443222 22.7589656 205.157941 21.3935906 203.864066 20.0196219 202.074847 19.3231844 199.839784 19.3231844M214.857363 27.2358281C215.170519 26.0846094 215.744925 25.1441094 216.569238 24.4332344 217.542738 23.5927656 218.671613 23.1843906 220.020831 23.1843906 221.345644 23.1843906 222.4068 23.5893281 223.264456 24.4218906 224.003519 25.1392969 224.51605 26.0839219 224.791738 27.2358281L214.857363 27.2358281zM224.644269 20.5890781C223.252425 19.7492969 221.640238 19.3230469 219.853425 19.3230469 218.547175 19.3230469 217.300738 19.5757031 216.148831 20.0731094 214.997613 20.5701719 213.9918 21.2642031 213.159925 22.1359531 212.328394 23.0066719 211.66255 24.0784844 211.180956 25.3218281 210.700738 26.5613906 210.457019 27.9174844 210.457019 29.3526406 210.457019 30.8018906 210.707613 32.1689844 211.200894 33.4150781 211.696238 34.6666719 212.386144 35.7402031 213.25205 36.6057656 214.116238 37.4699531 215.159519 38.1564219 216.353363 38.6448906 217.545488 39.1340469 218.842456 39.3818906 220.207144 39.3818906 221.904581 39.3818906 223.443894 39.0494844 224.781081 38.3936094 226.118613 37.7380781 227.240956 36.8312656 228.117863 35.6982656L228.417956 35.3101719 225.484738 32.7987344 225.150956 33.2071094C224.578269 33.9083594 223.874956 34.4765781 223.061644 34.8966406 222.257613 35.3105156 221.334988 35.5208906 220.318863 35.5208906 218.775425 35.5208906 217.519363 35.0551094 216.479175 34.0974219 215.575113 33.2652031 214.990394 32.1700156 214.736706 30.8366094L228.835956 30.8366094 228.907456 30.4052031C228.9738 30.0057656 229.007488 29.5509844 229.007488 29.0546094 229.007488 27.2179531 228.628331 25.5449219 227.880331 24.0819219 227.1258 22.6051719 226.0368 21.4302344 224.644269 20.5890781L224.644269 20.5890781zM241.459041 35.5207187C239.733416 35.5207187 238.379041 34.9686562 237.318572 33.8322187 236.248478 32.6854687 235.728384 31.2626875 235.728384 29.4830937 235.728384 27.567375 236.268416 26.07 237.379759 24.9050312 238.484916 23.7472812 239.831384 23.1842187 241.496166 23.1842187 242.555947 23.1842187 243.529447 23.4612812 244.388822 24.0071562 245.254384 24.5564687 245.940509 25.31925 246.427947 26.2735 246.921228 27.2377187 247.171134 28.3177812 247.171134 29.4830937 247.171134 30.3672187 247.014728 31.2011562 246.706728 31.9611875 246.399759 32.7177812 245.982103 33.3609375 245.464416 33.8734687 244.945009 34.3884062 244.330728 34.7967812 243.639791 35.085875 242.950916 35.3742812 242.217009 35.5207187 241.459041 35.5207187L241.459041 35.5207187zM247.059416 21.5782187C246.426228 20.9849062 245.710197 20.5015937 244.919572 20.1344687 243.759072 19.5961562 242.488228 19.3232187 241.143134 19.3232187 239.329509 19.3232187 237.665759 19.771125 236.198978 20.653875 234.733228 21.5362812 233.575134 22.765875 232.757353 24.3075937 231.944041 25.840375 231.532228 27.5752812 231.532228 29.4645312 231.532228 30.914125 231.783166 32.275375 232.277134 33.5097812 232.773509 34.7496875 233.461353 35.8105 234.322103 36.663 235.180103 37.514125 236.212041 38.1875312 237.389728 38.6646562 238.564666 39.1404062 239.833447 39.3817187 241.162041 39.3817187 242.587572 39.3817187 243.906884 39.0812812 245.083541 38.489 245.864884 38.0950625 246.569916 37.5921562 247.189697 36.9864687L247.189697 39.1397187 251.180978 39.1397187 251.180978 19.5466562 247.059416 19.5466562 247.059416 21.5782187z"/>
    <polygon fill="#FFF" points="256.108 39.14 260.229 39.14 260.229 10.033 256.108 10.033"/>
    <path fill="#FFF" d="M274.518819 34.565025C273.498225 35.1497438 272.532288 35.4460563 271.647475 35.4460563 270.9861 35.4460563 270.549881 35.2655875 270.314069 34.8939938 270.121569 34.5908063 269.891944 33.9521188 269.891944 32.6293688L269.891944 23.2587438 276.035788 23.2587438 276.035788 19.5469313 269.891944 19.5469313 269.891944 12.804275 265.770038 13.2508062 265.770038 19.5469313 263.405725 19.5469313 263.405725 23.2587438 265.770038 23.2587438 265.770038 33.0948063C265.770038 35.9627125 266.695756 39.3819938 271.107444 39.3819938 272.145569 39.3819938 273.043788 39.2713063 273.777006 39.0533688 274.501975 38.8378375 275.200131 38.5367125 275.853256 38.1579L276.206288 37.9526813 275.08085 34.243275 274.518819 34.565025zM295.043444 21.3937625C293.749569 20.0197937 291.96035 19.3233562 289.725288 19.3233562 288.229288 19.3233562 286.843288 19.6186375 285.6051 20.2006062 284.754663 20.6014187 283.994288 21.131825 283.333944 21.7842625L283.333944 10.0331687 279.212038 10.0331687 279.212038 39.1398562 283.333944 39.1398562 283.333944 29.2783562C283.333944 27.3485437 283.829631 25.8312312 284.807944 24.7680125 285.788663 23.7023875 287.104881 23.1843562 288.831881 23.1843562 291.579131 23.1843562 292.858913 24.8309187 292.858913 28.3657L292.858913 39.1584187 296.980475 39.1584187 296.980475 27.4908562C296.980475 24.8102937 296.328725 22.7591375 295.043444 21.3937625"/>
    <polygon fill="#D14C45" points="19.721 9.925 29.646 0 39.512 0 39.512 19.733 29.355 19.733 29.355 9.867"/>
    <polygon fill="#D14C45" points="39.509 19.726 49.433 29.651 49.433 39.517 29.7 39.517 29.7 29.361 39.567 29.361"/>
    <polygon fill="#D14C45" points="29.715 39.49 19.79 49.415 9.923 49.415 9.923 29.682 20.08 29.682 20.08 39.548"/>
    <polygon fill="#D14C45" points="9.925 29.705 0 19.78 0 9.913 19.733 9.913 19.733 20.07 9.867 20.07"/>
  </g>
</svg>
